# xmcd
#
# Track frame offsets:
#	150
#	18477
#	34485
#	53495
#	64767
#	87535
#	99970
#	121750
#	135502
#	146375
#	172630
#	184855
#	198445
#	212380
#	223257
#	236482
#	253997
#	272625
#	285745
#	305205
#
# Disc length: 4410 seconds
# Revision: 7
# Processed by: cddbd v1.5.2PL0 Copyright (c) Steve Scherf et al.
# Submitted via: dBpowerAMP V12.0
#
DISCID=25113814
DTITLE=Various Artist - The Blues Album
DYEAR=1995
DGENRE=Blues
TTITLE0=Gary Moore - Still Got The Blues For You
TTITLE1=John Mayall's Blues Breakers Featuring Eric Clapton - All Your Love
TTITLE2=Free - The Hunter
TTITLE3=Jeff Beck Group Featuring Rod Stewart - You Shook Me
TTITLE4=B. B. King - The Thrill Is Gone
TTITLE5=Muddy Waters - I'm Your Hoochie Coochie Man
TTITLE6=Paul Rodgers - Muddy Water Blues (Acoustic Version)
TTITLE7=Slim Harpo - I'm A King Bee
TTITLE8=The Fabulous Thunderbirds - Walkin' To My Baby
TTITLE9=Howlin' Wolf - Little Red Rooster
TTITLE10=John Lee Hooker - I'm In The Mood
TTITLE11=Elmore James - Dust My Broom
TTITLE12=Sonny Boy Williamson - Help Me
TTITLE13=Robert Johnson - Love In Vain
TTITLE14=Bo Diddley - I'm A Man
TTITLE15=Blues Breakers Featuring Peter Green - Greeny
TTITLE16=ZZ Top - My Head's In Mississippi
TTITLE17=Fleetwood Mac - Shake Your Money Maker
TTITLE18=Johnny Winter - Shame Shame Shame
TTITLE19=Stevie Ray Vaughan - I'm Leaving You (Commit A Crime)
EXTD=
EXTT0=
EXTT1=
EXTT2=
EXTT3=
EXTT4=
EXTT5=
EXTT6=
EXTT7=
EXTT8=
EXTT9=
EXTT10=
EXTT11=
EXTT12=
EXTT13=
EXTT14=
EXTT15=
EXTT16=
EXTT17=
EXTT18=
EXTT19=
PLAYORDER=
